Coordinates
version=1
nRows=9
nColumns=63
inDegrees=yes

Units are S.I. units (second, meters, Newtons, ...)
If the header above contains a line with 'inDegrees', this indicates whether rotational values are in degrees (yes) or radians (no).

endheader
time	pelvis_tilt	pelvis_list	pelvis_rotation	pelvis_tx	pelvis_ty	pelvis_tz	hip_flexion_r	hip_adduction_r	hip_rotation_r	knee_angle_r	knee_angle_r_beta	ankle_angle_r	subtalar_angle_r	mtp_angle_r	hip_flexion_l	hip_adduction_l	hip_rotation_l	knee_angle_l	knee_angle_l_beta	ankle_angle_l	subtalar_angle_l	mtp_angle_l	L5_S1_Flex_Ext	L5_S1_Lat_Bending	L5_S1_axial_rotation	L4_L5_Flex_Ext	L4_L5_Lat_Bending	L4_L5_axial_rotation	L3_L4_Flex_Ext	L3_L4_Lat_Bending	L3_L4_axial_rotation	L2_L3_Flex_Ext	L2_L3_Lat_Bending	L2_L3_axial_rotation	L1_L2_Flex_Ext	L1_L2_Lat_Bending	L1_L2_axial_rotation	L1_T12_Flex_Ext	L1_T12_Lat_Bending	L1_T12_axial_rotation	Abs_r3	Abs_r2	Abs_r1	Abs_t1	Abs_t2	neck_flexion	neck_bending	neck_rotation	arm_flex_r	arm_add_r	arm_rot_r	elbow_flex_r	pro_sup_r	wrist_flex_r	wrist_dev_r	arm_flex_l	arm_add_l	arm_rot_l	elbow_flex_l	pro_sup_l	wrist_flex_l	wrist_dev_l
      2.52083333	     -0.33486028	     -6.80500118	    106.65140610	      0.17557693	      0.91408824	      0.44336352	     -5.41764333	      1.56251133	    -12.41986221	      9.71988327	      0.16964397	     22.28773158	    -10.91922064	      0.00000000	     -4.35865537	     -0.59986000	     11.34067905	      4.47459461	      0.07809641	     24.70365876	      2.21925935	      0.00000000	     -0.32218844	      0.44022949	     -3.51301254	     -0.59833616	      0.58550522	     -3.73257582	     -0.52932340	      1.07037397	     -3.73257582	     -0.36822917	      1.07037397	     -3.07388597	     -0.29918419	      0.89771597	     -2.85432269	     -0.18409848	      0.68191547	     -2.63475940	     -2.30135984	      4.97996399	    -19.53832183	      0.00000000	      0.00000000	     16.06156623	      3.06211860	     -2.61578706	     21.26445634	    -15.71048819	     29.98349850	    144.82627484	     83.24331858	    -15.46647461	     21.36887371	    -16.60599526	    -19.59232006	     21.87077719	    114.38349081	     74.34854373	      0.56483684	     11.98439691
      2.54166667	     -0.32515193	     -6.73435905	    106.59852105	      0.17583953	      0.91408551	      0.44320220	     -5.47064789	      1.62996366	    -12.37115103	      9.81346348	      0.17127725	     22.50213713	    -10.87385218	      0.00000000	     -4.42256540	     -0.64419539	     11.26363246	      4.45754286	      0.07779880	     24.72893335	      2.19057029	      0.00000000	     -0.34255279	      0.44817357	     -3.51608897	     -0.63615478	      0.59607085	     -3.73584453	     -0.56277997	      1.08968922	     -3.73584453	     -0.39150358	      1.08968922	     -3.07657785	     -0.31809452	      0.91391555	     -2.85682229	     -0.19573466	      0.69422086	     -2.63706673	     -2.44682029	      5.06982907	    -19.55543202	      0.00000000	      0.00000000	     16.02683910	      2.88595643	     -2.41193267	     20.37865213	    -16.48801606	     30.25736040	    144.27593495	     83.15512313	    -15.67080832	     21.57672325	    -16.58862726	    -19.62033359	     21.72872289	    114.48524744	     74.37588367	      0.46228859	     11.78742388
      2.56250000	     -0.09001468	     -6.66720742	    105.80330794	      0.17612789	      0.91404326	      0.44274434	     -5.31816069	      1.68372276	    -12.23280567	     10.12802470	      0.17676738	     23.22162231	     -9.40874367	      0.00000000	     -4.66580281	     -0.80670357	     10.45828152	      4.14266242	      0.07230310	     24.72324758	      2.19349916	      0.00000000	     -0.34878817	      0.50883610	     -3.40192873	     -0.64773452	      0.67675201	     -3.61454928	     -0.57302409	      1.23718409	     -3.61454928	     -0.39863000	      1.23718409	     -2.97668764	     -0.32388470	      1.03761857	     -2.76406709	     -0.19929756	      0.78818712	     -2.55144655	     -2.49135905	      5.75605572	    -18.92050702	      0.00000000	      0.00000000	     15.57066289	      2.08672247	     -1.36530037	     20.46210213	    -17.75901850	     32.54771135	    144.07458330	     81.73541298	    -21.81275514	     20.88703525	    -16.42806929	    -19.55001699	     22.35795446	    114.11120203	     76.64067075	     -2.06028790	      7.32435289
      2.58333333	     -0.03674526	     -6.65543464	    105.87492675	      0.17597853	      0.91413362	      0.44292393	     -5.31429295	      1.75201894	    -12.29256213	     10.11502689	      0.17654052	     23.32554651	     -9.24532621	      0.00000000	     -4.61530793	     -0.88151198	     10.23294284	      4.17455296	      0.07285969	     24.70546490	      2.73762465	      0.00000000	     -0.35019028	      0.52723298	     -3.43457738	     -0.65033837	      0.70121987	     -3.64923847	     -0.57532761	      1.28191428	     -3.64923847	     -0.40023247	      1.28191428	     -3.00525521	     -0.32518669	      1.07513350	     -2.79059412	     -0.20009873	      0.81668389	     -2.57593304	     -2.50137416	      5.96416496	    -19.10208903	      0.00000000	      0.00000000	     15.17882474	      1.75740885	     -1.16831616	     20.18149182	    -18.49287397	     33.58663213	    143.65450970	     81.93739715	    -24.16289070	     19.48729102	    -15.90885164	    -19.89321846	     22.48691921	    114.37995434	     78.51203307	     -2.95915106	      6.74150012
      2.60416667	      0.04133568	     -6.61330635	    105.85081410	      0.17593538	      0.91430078	      0.44302464	     -5.37015497	      1.83599793	    -12.32981495	     10.04499281	      0.17531820	     23.12101290	     -9.14842778	      0.00000000	     -4.67491803	     -0.93599243	     11.60690359	      4.09410541	      0.07145562	     24.15579006	      0.93532576	      0.00000000	     -0.35569128	      0.54727467	     -3.44670462	     -0.66055428	      0.72787531	     -3.66212366	     -0.58436521	      1.33064363	     -3.66212366	     -0.40651957	      1.33064363	     -3.01586654	     -0.33029492	      1.11600251	     -2.80044750	     -0.20324200	      0.84772846	     -2.58502846	     -2.54066725	      6.19088052	    -19.16953707	      0.00000000	      0.00000000	     14.74285427	      1.57270053	     -1.17421913	     20.11642063	    -18.96481476	     34.38249450	    143.52232160	     81.78610609	    -25.90735340	     18.48829625	    -15.19887300	    -20.33408688	     22.60770739	    114.53211020	     79.13768966	     -2.37780557	      6.19414443
      2.62500000	      0.11430959	     -6.62787769	    105.99102082	      0.17580866	      0.91447787	      0.44321185	     -5.41790561	      1.91219375	    -12.77587969	      9.93353963	      0.17337297	     22.66796781	     -9.03834539	      0.00000000	     -4.59137818	     -1.03636388	     11.84637146	      4.16320219	      0.07266159	     23.88859390	      0.98013204	      0.00000000	     -0.35008854	      0.55908856	     -3.46928756	     -0.65014943	      0.74358778	     -3.68611803	     -0.57516047	      1.35936792	     -3.68611803	     -0.40011620	      1.35936792	     -3.03562661	     -0.32509222	      1.14009339	     -2.81879614	     -0.20004059	      0.86602818	     -2.60196567	     -2.50064745	      6.32452159	    -19.29513662	      0.00000000	      0.00000000	     14.16584021	      1.40844526	     -1.56940164	     20.01498111	    -19.01810729	     34.49439807	    143.70891459	     81.29809806	    -26.04735744	     18.31706993	    -14.41488583	    -20.83875610	     22.71348197	    114.73934238	     79.83806357	     -1.07511801	      6.36172965
      2.64583333	      0.07012580	     -6.62192741	    106.08743235	      0.17596403	      0.91475460	      0.44349897	     -5.54194904	      1.90393887	    -13.11146674	      9.79735085	      0.17099603	     22.02203924	     -9.29828066	      0.00000000	     -4.53314371	     -1.05338992	     11.63120423	      4.29598859	      0.07497915	     23.71800397	      1.70076778	      0.00000000	     -0.35444997	      0.55444306	     -3.48200164	     -0.65824904	      0.73740927	     -3.69962675	     -0.58232586	      1.34807285	     -3.69962675	     -0.40510087	      1.34807285	     -3.04675144	     -0.32914224	      1.13062029	     -2.82912634	     -0.20253271	      0.85883230	     -2.61150123	     -2.53180070	      6.27197077	    -19.36584854	      0.00000000	      0.00000000	     13.57272799	      1.30867248	     -1.88152096	     20.15605831	    -18.75917876	     34.58695011	    143.99125914	     80.81322019	    -25.53832781	     18.11273131	    -13.61977666	    -21.49339531	     22.85783288	    114.99686926	     79.79224623	      0.66729322	      6.95124664
      2.66666667	      0.10472760	     -6.69942018	    105.97027869	      0.17618535	      0.91484473	      0.44357563	     -5.54399191	      1.87010355	    -13.65333909	      9.73161567	      0.16984874	     21.38961871	     -8.98087121	      0.00000000	     -4.57532756	     -0.97211676	     15.28219761	      4.12305960	      0.07196097	     22.33479612	     -3.37895105	      0.00000000	     -0.34385746	      0.56115965	     -3.49128678	     -0.63857769	      0.74634234	     -3.70949221	     -0.56492342	      1.36440358	     -3.70949221	     -0.39299469	      1.36440358	     -3.05487594	     -0.31930604	      1.14431677	     -2.83667051	     -0.19648015	      0.86923630	     -2.61846509	     -2.45613944	      6.34795024	    -19.41748971	      0.00000000	      0.00000000	     12.95070830	      1.42166671	     -1.62643377	     20.80325343	    -18.55180493	     35.73558364	    144.41503619	     82.22633587	    -26.93361688	     17.82254416	    -13.28257840	    -21.85368185	     22.79728857	    115.21885974	     78.02116622	      2.44219618	      7.64832639
      2.68750000	      0.09237453	     -6.77876485	    105.81313201	      0.17660450	      0.91475052	      0.44369930	     -5.52482656	      1.79412851	    -14.03231039	      9.72786156	      0.16978321	     20.61078928	     -8.96619855	      0.00000000	     -4.50060603	     -0.96631097	     15.36643146	      4.17792370	      0.07291852	     22.17338646	     -3.36937858	      0.00000000	     -0.33966077	      0.55898457	     -3.48218002	     -0.63078402	      0.74344948	     -3.69981627	     -0.55802868	      1.35911508	     -3.69981627	     -0.38819830	      1.35911508	     -3.04690752	     -0.31540899	      1.13988134	     -2.82927127	     -0.19408217	      0.86586710	     -2.61163502	     -2.42616293	      6.32334526	    -19.36684062	      0.00000000	      0.00000000	     12.53121717	      1.48603711	     -1.62206385	     21.18518370	    -18.35601744	     36.54311970	    145.00208436	     82.32578379	    -26.57803227	     17.75376821	    -13.05947489	    -22.32392078	     23.07420778	    115.61805324	     77.89348330	      2.58275705	      7.68456370
